<?xml version="1.0" encoding="UTF-8" standalone="no"?>
<!-- Created with Inkscape (http://www.inkscape.org/) -->

<svg
   width="109.68997mm"
   height="57.130077mm"
   viewBox="0 0 109.68998 57.130077"
   version="1.1"
   id="svg1"
   inkscape:version="1.3.2 (091e20ef0f, 2023-11-25)"
   sodipodi:docname="logo.svg"
   xmlns:inkscape="http://www.inkscape.org/namespaces/inkscape"
   xmlns:sodipodi="http://sodipodi.sourceforge.net/DTD/sodipodi-0.dtd"
   xmlns="http://www.w3.org/2000/svg"
   xmlns:svg="http://www.w3.org/2000/svg">
  <sodipodi:namedview
     id="namedview1"
     pagecolor="#ffffff"
     bordercolor="#000000"
     borderopacity="0.25"
     inkscape:showpageshadow="2"
     inkscape:pageopacity="0.0"
     inkscape:pagecheckerboard="0"
     inkscape:deskcolor="#d1d1d1"
     inkscape:document-units="mm"
     inkscape:zoom="1.6321259"
     inkscape:cx="192.08077"
     inkscape:cy="73.523739"
     inkscape:window-width="1920"
     inkscape:window-height="1044"
     inkscape:window-x="0"
     inkscape:window-y="0"
     inkscape:window-maximized="0"
     inkscape:current-layer="layer1" />
  <defs
     id="defs1" />
  <g
     inkscape:label="Layer 1"
     inkscape:groupmode="layer"
     id="layer1"
     transform="translate(-28.381805,-38.737225)">
    <rect
       style="fill:#2e3440;fill-opacity:1;stroke-width:3.68649;paint-order:stroke fill markers"
       id="rect15"
       width="109.68997"
       height="57.130077"
       x="28.381805"
       y="38.737225" />
    <path
       style="font-weight:bold;font-size:8.84634px;font-family:JetBrainsMono;-inkscape-font-specification:'JetBrainsMono Bold';fill:#d8dee9;stroke-width:11.145;paint-order:stroke fill markers"
       d="m 64.578692,79.635621 q -0.62809,0 -1.096946,-0.230005 -0.46001,-0.238851 -0.716554,-0.663476 -0.256544,-0.43347 -0.256544,-1.017329 v -1.220795 q 0,-0.583858 0.256544,-1.008483 0.256544,-0.43347 0.716554,-0.663475 0.468856,-0.238851 1.096946,-0.238851 0.911173,0 1.459646,0.477702 0.55732,0.468856 0.583859,1.282719 h -1.0881 q -0.02654,-0.380392 -0.291929,-0.583858 -0.256544,-0.212312 -0.663476,-0.212312 -0.451163,0 -0.707707,0.247697 -0.256544,0.238852 -0.256544,0.690015 v 1.229641 q 0,0.451164 0.256544,0.698861 0.256544,0.247698 0.707707,0.247698 0.415778,0 0.672322,-0.203466 0.256544,-0.212312 0.283083,-0.592705 h 1.0881 q -0.02654,0.813863 -0.583859,1.291566 -0.548473,0.468856 -1.459646,0.468856 z m 2.990066,-0.08846 V 74.68167 h 0.92002 v 0.707707 h 0.02654 q 0.02654,-0.353853 0.247697,-0.575012 0.221159,-0.221158 0.55732,-0.221158 0.327314,0 0.557319,0.212312 0.230005,0.203466 0.309622,0.557319 0.03539,-0.353853 0.256544,-0.557319 0.230005,-0.212312 0.575012,-0.212312 0.442317,0 0.734246,0.353853 0.291929,0.345008 0.291929,0.893481 v 3.706616 h -0.973097 v -3.626999 q 0,-0.238851 -0.115002,-0.371546 -0.106156,-0.141542 -0.309622,-0.141542 -0.398086,0 -0.398086,0.513088 v 3.626999 h -0.884634 v -3.626999 q 0,-0.238851 -0.106156,-0.371546 -0.09731,-0.141542 -0.291929,-0.141542 -0.424624,0 -0.424624,0.513088 v 3.626999 z m 7.103615,0.08846 q -0.707707,0 -1.150024,-0.504242 -0.433471,-0.504241 -0.433471,-1.35349 v -1.318104 q 0,-0.858095 0.433471,-1.362337 0.43347,-0.504241 1.150024,-0.504241 0.504241,0 0.849248,0.256544 0.353854,0.256544 0.495396,0.716553 l -0.03539,-1.114639 v -1.362336 h 1.105793 v 6.457828 H 76.00817 v -0.884634 q -0.132695,0.46001 -0.477702,0.716554 -0.345007,0.256544 -0.858095,0.256544 z m 0.415778,-0.955405 q 0.424624,0 0.654629,-0.256544 0.238851,-0.256544 0.238851,-0.7254 v -1.167717 q 0,-0.468856 -0.238851,-0.7254 -0.230005,-0.256543 -0.654629,-0.256543 -0.424625,0 -0.663476,0.230004 -0.230005,0.230005 -0.230005,0.707708 v 1.25618 q 0,0.477702 0.230005,0.707707 0.238851,0.230005 0.663476,0.230005 z m 3.396997,2.459283 v -0.999637 h 1.28272 q 0.424624,0 0.672321,-0.256544 0.247698,-0.247697 0.247698,-0.681168 v -3.520843 h -2.24697 V 74.68167 h 3.352763 v 4.547019 q 0,0.884634 -0.530781,1.397722 -0.53078,0.513088 -1.433107,0.513088 z m 2.698134,-7.271692 q -0.336161,0 -0.53078,-0.168081 -0.19462,-0.176926 -0.19462,-0.468856 0,-0.291929 0.19462,-0.460009 0.194619,-0.176927 0.53078,-0.176927 0.336161,0 0.53078,0.176927 0.19462,0.16808 0.19462,0.460009 0,0.29193 -0.19462,0.468856 -0.194619,0.168081 -0.53078,0.168081 z m 4.555869,5.767814 q -0.619244,0 -1.079253,-0.238851 -0.46001,-0.238852 -0.716554,-0.672322 -0.247698,-0.442317 -0.247698,-1.035022 v -1.150024 q 0,-0.592705 0.247698,-1.026176 0.256544,-0.442317 0.716554,-0.681168 0.460009,-0.238851 1.079253,-0.238851 0.610398,0 1.061561,0.238851 0.46001,0.238851 0.707707,0.672322 0.256544,0.424624 0.256544,0.999636 v 0.884634 h -3.007756 v 0.336161 q 0,0.495395 0.256544,0.751939 0.256544,0.247698 0.7254,0.247698 0.345007,0 0.583859,-0.115003 0.247697,-0.123849 0.291929,-0.353853 h 1.096946 q -0.115003,0.62809 -0.654629,1.008482 -0.539627,0.371547 -1.318105,0.371547 z m -0.981944,-3.131605 v 0.168081 l 1.946195,-0.0088 v -0.16808 q 0,-0.504241 -0.247697,-0.778478 -0.247698,-0.274237 -0.716554,-0.274237 -0.486549,0 -0.734246,0.283083 -0.247698,0.274237 -0.247698,0.778478 z m 4.52933,3.043141 -0.760785,-4.865487 h 0.875788 l 0.43347,2.981217 q 0.03539,0.274236 0.06193,0.592705 0.02654,0.318468 0.04423,0.53078 0.0088,-0.212312 0.03539,-0.53078 0.02654,-0.318469 0.07962,-0.592705 l 0.53078,-2.981217 h 0.92002 l 0.513087,2.981217 q 0.05308,0.274236 0.07962,0.601551 0.03539,0.318468 0.05308,0.53078 0.01769,-0.212312 0.03538,-0.53078 0.02654,-0.327315 0.07077,-0.601551 l 0.442317,-2.981217 h 0.849248 l -0.778478,4.865487 h -1.141178 l -0.460009,-2.998909 q -0.04423,-0.247698 -0.07962,-0.566166 -0.03539,-0.327314 -0.05308,-0.53078 -0.0088,0.203466 -0.05308,0.53078 -0.04423,0.318468 -0.07962,0.566166 l -0.477703,2.998909 z m 7.068228,0.08846 q -0.619244,0 -1.079254,-0.238851 -0.460009,-0.238852 -0.716553,-0.672322 -0.247698,-0.442317 -0.247698,-1.035022 v -1.150024 q 0,-0.592705 0.247698,-1.026176 0.256544,-0.442317 0.716553,-0.681168 0.46001,-0.238851 1.079254,-0.238851 0.610397,0 1.061561,0.238851 0.46001,0.238851 0.707707,0.672322 0.256544,0.424624 0.256544,0.999636 v 0.884634 h -3.007756 v 0.336161 q 0,0.495395 0.256544,0.751939 0.256544,0.247698 0.7254,0.247698 0.345007,0 0.583858,-0.115003 0.247698,-0.123849 0.29193,-0.353853 h 1.096946 q -0.115003,0.62809 -0.654629,1.008482 -0.539627,0.371547 -1.318105,0.371547 z m -0.981944,-3.131605 v 0.168081 l 1.946195,-0.0088 v -0.16808 q 0,-0.504241 -0.247697,-0.778478 -0.247698,-0.274237 -0.716554,-0.274237 -0.486549,0 -0.734246,0.283083 -0.247698,0.274237 -0.247698,0.778478 z m 7.068229,3.043141 q -0.7254,0 -1.16772,-0.43347 -0.43347,-0.433471 -0.43347,-1.141178 v -3.883544 h -1.601184 v -0.999636 h 2.706984 v 4.856641 q 0,0.274236 0.15038,0.442317 0.15924,0.159234 0.42463,0.159234 h 1.42426 v 0.999636 z"
       id="text1"
       aria-label="cmdjewel" />
    <path
       style="font-weight:bold;font-size:8.84634px;font-family:JetBrainsMono;-inkscape-font-specification:'JetBrainsMono Bold';fill:#81a1c1;stroke-width:11.145;paint-order:stroke fill markers"
       d="m 83.226793,62.810086 -2.742365,-5.396267 h 5.484731 z"
       id="text1-5"
       aria-label="▼ " />
    <path
       style="font-weight:bold;font-size:8.84634px;font-family:JetBrainsMono;-inkscape-font-specification:'JetBrainsMono Bold';fill:#d8dee9;stroke-width:11.145;paint-order:stroke fill markers"
       d="m 49.118212,63.079896 q -0.778478,0 -1.406568,-0.353854 -0.619244,-0.3627 -0.981944,-0.981943 -0.353854,-0.628091 -0.353854,-1.406568 0,-0.787325 0.353854,-1.406569 0.3627,-0.619243 0.981944,-0.973097 0.62809,-0.3627 1.406568,-0.3627 0.787324,0 1.406568,0.3627 0.619244,0.353854 0.973097,0.973097 0.3627,0.619244 0.3627,1.406569 0,0.778477 -0.3627,1.406568 -0.353853,0.619243 -0.973097,0.981943 -0.619244,0.353854 -1.406568,0.353854 z"
       id="text1-5-9"
       aria-label="●" />
    <path
       style="font-weight:bold;font-size:8.84634px;font-family:JetBrainsMono;-inkscape-font-specification:'JetBrainsMono Bold';fill:#ebcb8b;stroke-width:11.145;paint-order:stroke fill markers"
       d="m 60.487738,63.084321 -2.742366,-2.742365 2.742366,-2.751212 2.742365,2.751212 z"
       id="text8"
       aria-label="◆" />
    <path
       style="font-weight:bold;font-size:8.84634px;font-family:JetBrainsMono;-inkscape-font-specification:'JetBrainsMono Bold';fill:#bf616a;stroke-width:11.145;paint-order:stroke fill markers"
       d="m 91.942421,62.987011 v -5.307804 h 5.307804 v 5.307804 z"
       id="text9"
       aria-label="■" />
    <path
       style="font-weight:bold;font-size:8.84634px;font-family:JetBrainsMono;-inkscape-font-specification:'JetBrainsMono Bold';fill:#a2bd8b;stroke-width:11.145;paint-order:stroke fill markers"
       d="m 71.857264,63.075475 q -0.778478,0 -1.406569,-0.353854 -0.619243,-0.3627 -0.981943,-0.981944 -0.353854,-0.62809 -0.353854,-1.406568 0,-0.787324 0.353854,-1.406568 0.3627,-0.619244 0.981943,-0.973097 0.628091,-0.3627 1.406569,-0.3627 0.787324,0 1.406568,0.3627 0.619243,0.353853 0.973097,0.973097 0.3627,0.619244 0.3627,1.406568 0,0.778478 -0.3627,1.406568 -0.353854,0.619244 -0.973097,0.981944 -0.619244,0.353854 -1.406568,0.353854 z m 0,-0.442317 q 0.654629,0 1.176563,-0.300776 0.521934,-0.300775 0.822709,-0.822709 0.300776,-0.521935 0.300776,-1.176564 0,-0.654629 -0.300776,-1.176563 -0.300775,-0.521934 -0.822709,-0.82271 -0.521934,-0.300775 -1.176563,-0.300775 -0.65463,0 -1.176564,0.300775 -0.521934,0.300776 -0.822709,0.82271 -0.300776,0.521934 -0.300776,1.176563 0,0.654629 0.300776,1.176564 0.300775,0.521934 0.822709,0.822709 0.521934,0.300776 1.176564,0.300776 z m 0,-0.55732 q -0.486549,0 -0.884634,-0.230005 -0.389239,-0.238851 -0.628091,-0.62809 -0.230004,-0.398085 -0.230004,-0.884634 0,-0.486548 0.230004,-0.875787 0.238852,-0.398086 0.628091,-0.628091 0.398085,-0.238851 0.884634,-0.238851 0.504241,0 0.89348,0.230005 0.398085,0.221159 0.619244,0.619244 0.230005,0.389239 0.230005,0.89348 0,0.486549 -0.238852,0.884634 -0.230004,0.389239 -0.62809,0.62809 -0.389239,0.230005 -0.875787,0.230005 z m 0,-0.415778 q 0.380392,0 0.681168,-0.16808 0.300775,-0.176927 0.468856,-0.477703 0.176927,-0.300775 0.176927,-0.681168 0,-0.380392 -0.176927,-0.681168 -0.168081,-0.300775 -0.468856,-0.468856 -0.300776,-0.176927 -0.681168,-0.176927 -0.380393,0 -0.681169,0.176927 -0.300775,0.168081 -0.477702,0.468856 -0.16808,0.300776 -0.16808,0.681168 0,0.380393 0.16808,0.681168 0.176927,0.300776 0.477702,0.477703 0.300776,0.16808 0.681169,0.16808 z"
       id="text10"
       aria-label="◎" />
    <path
       style="font-weight:bold;font-size:7.48499px;font-family:JetBrainsMono;-inkscape-font-specification:'JetBrainsMono Bold';fill:#d08770;stroke-width:9.42992;paint-order:stroke fill markers"
       d="m 103.24669,61.904663 v -3.143112 l 2.71915,-1.5679 2.71916,1.5679 v 3.143112 l -2.71916,1.5679 z"
       id="text12"
       aria-label="⬢" />
    <path
       style="font-weight:bold;font-size:8.84634px;font-family:JetBrainsMono;-inkscape-font-specification:'JetBrainsMono Bold';fill:#afafff;stroke-width:11.145;paint-order:stroke fill markers"
       d="m 114.59301,63.031243 2.74236,-5.396268 2.74237,5.396268 z"
       id="text13"
       aria-label="▲" />
  </g>
</svg>
